Coordinates
version=1
nRows=13
nColumns=36
inDegrees=yes

Units are S.I. units (second, meters, Newtons, ...)
If the header above contains a line with 'inDegrees', this indicates whether rotational values are in degrees (yes) or radians (no).

endheader
time	pelvis_tilt	pelvis_list	pelvis_rotation	pelvis_tx	pelvis_ty	pelvis_tz	hip_flexion_r	hip_adduction_r	hip_rotation_r	knee_angle_r	knee_angle_r_beta	ankle_angle_r	subtalar_angle_r	mtp_angle_r	hip_flexion_l	hip_adduction_l	hip_rotation_l	knee_angle_l	knee_angle_l_beta	ankle_angle_l	subtalar_angle_l	mtp_angle_l	lumbar_extension	lumbar_bending	lumbar_rotation	arm_flex_r	arm_add_r	arm_rot_r	elbow_flex_r	pro_sup_r	arm_flex_l	arm_add_l	arm_rot_l	elbow_flex_l	pro_sup_l
     44.90000000	     -1.76319893	     -1.40074165	     -3.87347185	      1.04190764	      0.93564801	      0.72756497	      2.58387031	      3.78178295	      6.86888749	     14.34350786	      0.25034144	     17.52026584	      6.39287019	     -7.49999987	     27.47416015	     -8.30374052	     -5.83277761	     43.06533582	      0.75163190	      0.50126468	     -7.71838305	     -7.49999987	    -12.53819361	      4.46209619	     11.65553246	      0.49287117	    -15.56450983	     -5.77141097	     30.62937095	     65.32278041	      3.91033342	     -4.70087888	      1.15223109	     17.46087172	     62.34741382
     44.91666670	     -2.00348134	     -1.32407730	     -3.58817091	      1.04036299	      0.93574363	      0.72665151	      1.94794364	      3.59739438	      6.90551783	     14.19110048	      0.24768143	     18.59041634	      6.25945674	     -7.49999987	     28.33608346	     -8.29053432	     -6.06113914	     37.99136831	      0.66307446	      0.51793053	     -5.99155760	     -7.49999987	    -12.34562276	      4.44181216	     11.74964983	      0.78022379	    -15.60856858	     -5.63361030	     31.56637303	     65.28241519	      3.51595608	     -4.52906797	      0.93218724	     17.53259349	     62.39615558
     44.93333330	     -2.01809401	     -1.30558045	     -3.37720749	      1.03890625	      0.93548385	      0.72539907	      0.98292183	      3.53003577	      7.05229841	     14.03910208	      0.24502856	     19.75691063	      6.16113184	     -7.49999987	     28.91551202	     -8.32496407	     -6.36161994	     33.06005249	      0.57700677	      0.90382250	     -3.49968275	     -7.49999987	    -12.51685846	      4.41191319	     11.87280797	      1.10147888	    -15.80620185	     -4.76101152	     32.74852453	     65.17823199	      3.42565453	     -4.24642127	     -0.18311553	     17.35357657	     62.71240818
     44.95000000	     -2.18740620	     -1.16231349	     -3.22123410	      1.03774076	      0.93244285	      0.72373923	     -0.09754606	      3.40969089	      7.30649518	     13.78005426	      0.24050732	     20.62950526	      6.39816667	     -7.49999987	     29.65675438	     -8.17327412	     -6.54465957	     28.43817192	      0.49633973	      1.62954929	     -1.11876228	     -7.49999987	    -12.41520842	      4.18331467	     11.82653807	      1.70998588	    -15.89988843	     -3.85090505	     33.24520889	     64.94043611	      3.25551428	     -4.04967598	     -1.06734189	     17.20677507	     63.18525779
     44.96666670	     -2.55309993	     -0.78697927	     -3.11526594	      1.03588133	      0.92658606	      0.72193337	     -1.17699116	      3.09817951	      7.72869986	     13.49607605	      0.23555096	     20.84457587	      6.73680977	     -7.49999987	     30.69826431	     -7.72692384	     -6.63306767	     24.38157541	      0.42553877	      2.97009246	      0.99113560	     -7.49999987	    -12.15464398	      3.58455580	     11.67161294	      2.43087753	    -15.87795966	     -2.94514388	     33.62063668	     64.74847161	      3.06350426	     -4.01767497	     -1.63430880	     17.25731673	     63.78865713
     44.98333330	     -2.94735942	     -0.13305989	     -2.89500984	      1.03336723	      0.91973686	      0.72049388	     -2.09938217	      2.43519517	      7.72474415	     13.51729226	      0.23592126	     20.85980714	      7.54434558	     -7.49999987	     32.02605958	     -6.88547994	     -6.62302513	     21.45107039	      0.37439181	      5.10458669	      3.26378958	     -7.49999987	    -11.99195700	      2.57180604	     11.22307975	      3.30938856	    -15.68407893	     -2.24033358	     34.00463211	     64.56935903	      2.95607994	     -4.16307235	     -2.28588053	     17.44178288	     64.02620162
     45.00000000	     -3.43057286	      0.79487134	     -2.65816860	      1.03197114	      0.91217072	      0.71986714	     -2.56153259	      1.44357808	      7.49772675	     14.04135025	      0.24506779	     21.16221721	      8.27876379	     -7.49999987	     33.65781443	     -5.76374679	     -6.70768196	     20.06314150	      0.35016788	      7.48934535	      5.49762161	     -7.49999987	    -11.75515628	      1.18439479	     10.68491780	      4.08874050	    -15.29757704	     -1.77157663	     34.66404022	     64.55554677	      2.78410186	     -4.54561609	     -2.61731291	     17.99073359	     64.16225203
     45.01666670	     -3.78728078	      1.79851724	     -2.52862092	      1.03245374	      0.90467096	      0.71949804	     -2.84345158	      0.34219776	      7.21459910	     14.97604216	      0.26138124	     22.01989874	      8.92769154	     -7.49999987	     35.28655289	     -4.69183134	     -7.16108409	     20.55092286	      0.35868127	      9.68203272	      7.64939189	     -7.49999987	    -11.50173366	     -0.34038622	     10.13279555	      5.06833672	    -14.83200846	     -0.98974414	     34.92763544	     64.65382728	      2.74324199	     -4.98123143	     -3.04391995	     18.04721734	     64.41083785
     45.03333330	     -3.98589935	      2.76201665	     -2.47749638	      1.03440048	      0.89928097	      0.71856839	     -3.32265171	     -0.78933446	      6.91031361	     15.89059247	      0.27734316	     23.39679778	      9.39204224	     -7.49999987	     36.53995654	     -3.67772649	     -7.82349867	     22.35083971	      0.39009574	     10.98124452	      9.06670433	     -7.49999987	    -11.15572235	     -1.81155646	      9.77232242	      5.74475293	    -14.46656585	     -0.06402775	     35.37850868	     64.90015826	      2.60108021	     -5.42235656	     -3.35815993	     18.19387920	     64.86003532
     45.05000000	     -3.83104231	      3.55827493	     -2.71887863	      1.03666772	      0.89850603	      0.71673789	     -4.49943519	     -1.83085715	      7.33652645	     16.30897040	      0.28464523	     24.53397459	      8.98826777	     -7.49999987	     36.79592091	     -2.84742702	     -8.81829683	     24.49769561	      0.42756545	     10.94342979	      9.74947468	     -7.49999987	    -10.86237688	     -3.10241421	      9.87074945	      6.20647656	    -14.18047236	      0.44717262	     35.70043092	     65.01926754	      2.55028594	     -5.72885391	     -3.57345198	     18.10052160	     65.07339263
     45.06666670	     -3.45476796	      4.10352433	     -3.09648627	      1.03879691	      0.90120850	      0.71333383	     -6.27241668	     -2.74017047	      8.33723567	     16.06208385	      0.28033625	     24.65261424	      7.75832344	     -7.49999987	     36.07580808	     -2.22595337	    -10.22197342	     26.23418917	      0.45787298	      9.84548494	     10.72388873	     -7.49999987	    -10.66475928	     -4.07900200	     10.28324070	      6.46434041	    -14.10008336	      1.39180640	     35.77300018	     65.02284335	      2.47384546	     -5.91048226	     -4.20888190	     18.00571539	     65.28473579
     45.08333330	     -3.21510647	      4.31925872	     -3.30782408	      1.04041182	      0.90301824	      0.70883528	     -7.81985709	     -3.43681343	      9.15602824	     15.91450849	      0.27776057	     24.06924953	      6.49086842	     -7.49999987	     35.02797433	     -1.59884784	    -10.80847343	     27.17928237	      0.47436797	      7.72302317	     10.64052000	     -7.49999987	    -10.25704511	     -4.56897538	     10.65320282	      6.42019249	    -14.24406220	      2.52212031	     35.63601552	     64.83781557	      2.53416750	     -5.87930540	     -4.70675023	     17.39725962	     65.79295611
     45.10000000	     -3.12561067	      4.32166461	     -3.40446481	      1.04202531	      0.90195797	      0.70528192	     -8.83879617	     -3.87119361	     10.00799701	     16.38551576	      0.28598120	     23.02394743	      4.85885547	     -7.49999987	     34.01860229	     -1.15850589	    -10.95652148	     27.65629724	      0.48269345	      5.67865719	     10.61227104	     -7.49999987	     -9.91392705	     -4.79270077	     11.02196696	      6.09941931	    -14.30100653	      3.01600995	     35.51003852	     64.54570354	      2.42801616	     -5.83262814	     -4.78053664	     17.39364164	     66.12018569
